<svg xmlns="http://www.w3.org/2000/svg" viewBox="0 0 532 453.17"><defs><style>.cls-1{fill:#fff;}</style></defs><title>coupleArtboard 1</title><g id="Layer_1" data-name="Layer 1"><path d="M265.45,130A24.63,24.63,0,0,1,241,106a24.5,24.5,0,0,1,24-25h.53a24.5,24.5,0,0,1,.51,49Z"/><path class="cls-1" d="M265.46,83a22.5,22.5,0,0,1,.47,45h-.49A22.5,22.5,0,0,1,265,83h.49m0-4h-.58a26.5,26.5,0,0,0,.56,53H266a26.5,26.5,0,0,0-.56-53Z"/><path d="M361.78,278.14a12,12,0,0,1-4-.67c-35.55-12.37-52.82-29.77-61.06-42.28l-31.62,12.3,0-2.87c0-.11-.19-11.52-.8-26.57l-.06-1.43,1.33-.52a56.3,56.3,0,0,0,5.42-2.44c8.37-4.29,19.73-13.13,26.4-30.89a6,6,0,1,0-11.22-4.26c-4.26,11.09-10.72,18.93-19.74,24L263.64,204l-.18-3.19c-.33-5.92-.71-11.5-1.1-16.59l-.08-1,.7-.66a77.65,77.65,0,0,0,11.31-13.3,70.53,70.53,0,0,0,10-21.47,5.5,5.5,0,0,0-4.14-6.6,5.55,5.55,0,0,0-1.23-.14,5.47,5.47,0,0,0-5.35,4.27,61,61,0,0,1-9,18.71L261,169l-.65-5c-.17-1.35-.35-2.66-.54-3.93a30.82,30.82,0,0,1,5.2-22.76l.34-.51c2.73-4.31,8.35-6.88,15-6.88,4.54,0,8.56,1.21,10.75,3.23,7.14,6.61,13,22.71,15.63,43,2.52,19.42,25.19,41.94,25.42,42.17l2.2,2.17-14.47,5.63c9.5,11.67,24.89,21.29,45.83,28.63a12,12,0,0,1-4,23.33Z"/><path class="cls-1" d="M280.39,131.93c3.93,0,7.58,1,9.39,2.7,4.5,4.17,11.67,16.17,15,41.83,2.64,20.33,26,43.33,26,43.33l-14.09,5.48c7.13,9.64,20.84,21.75,48.39,31.41a10,10,0,1,1-6.59,18.88c-33.13-11.52-51-27.68-60.19-41.71-.25-.38-.49-.76-.73-1.14L267.1,244.59s-.18-11.37-.81-26.62a58.13,58.13,0,0,0,5.61-2.52c10.88-5.58,21.29-15.81,27.36-32a8,8,0,1,0-15-5.67c-4.69,12.22-11.49,18.82-18.84,22.93-.31-5.5-.68-11.13-1.11-16.63A79.67,79.67,0,0,0,276,170.45c7.89-11.72,10.16-21.55,10.31-22.16A7.5,7.5,0,0,0,271.64,145h0a58.9,58.9,0,0,1-8.73,18l-.58.8c-.18-1.36-.35-2.68-.54-4A28.93,28.93,0,0,1,267,137.89c2.68-4.23,8.26-6,13.35-6m0-4c-7.38,0-13.63,2.92-16.73,7.81l-.31.46a32.73,32.73,0,0,0-5.52,24.18c.17,1.2.35,2.47.53,3.9l1.29,10,5.92-8.19.21-.29.4-.55A67.39,67.39,0,0,0,274.59,149h.24l.71-3.11a3.49,3.49,0,0,1,4.18-2.63,3.5,3.5,0,0,1,2.64,4.16v0a68.49,68.49,0,0,1-9.72,20.81,75.64,75.64,0,0,1-11,13l-1.4,1.31.15,1.91c.4,5.08.77,10.65,1.1,16.54l.36,6.38,5.58-3.12c9.44-5.28,16.19-13.45,20.62-25a4,4,0,0,1,3.75-2.6,4,4,0,0,1,3.74,5.42c-6.45,17.18-17.4,25.7-25.44,29.83a53.79,53.79,0,0,1-5.24,2.36l-2.66,1,.12,2.85c.61,15,.8,26.41.8,26.52l.09,5.75,5.36-2.08L296,237.63c8.74,12.64,26.33,29.6,61.17,41.73a14,14,0,0,0,9.23-26.44c-19.29-6.76-33.77-15.46-43.13-25.9l9-3.49,5.76-2.24-4.4-4.34c-.22-.22-22.41-22.29-24.84-41-1.53-11.81-4-21.9-7.33-30s-6.68-12.19-8.92-14.27c-2.55-2.36-7.08-3.77-12.11-3.77Z"/><path d="M269.85,144.08l3.58,1.79Z"/><path class="cls-1" d="M271.64,145h0m-3.57-1.8h0l7.15,3.59-7.15-3.59Z"/><path d="M220.44,198.38l-.87,0a24.49,24.49,0,0,1,.9-49l.94,0a24.5,24.5,0,0,1,21.69,33.9l-.27.64-.6.34a76,76,0,0,1-14.12,6.11,5.53,5.53,0,0,0-3.81,5.73l.18,2-2,.16C221.78,198.35,221.1,198.38,220.44,198.38Z"/><path class="cls-1" d="M220.48,151.39l.86,0a22.5,22.5,0,0,1,19.92,31.13,73.46,73.46,0,0,1-13.75,5.95,7.5,7.5,0,0,0-5.2,7.82c-.62,0-1.24.08-1.87.08h-.79a22.49,22.49,0,0,1,.83-45m0-4a26.49,26.49,0,0,0-1,53l.94,0c.71,0,1.45,0,2.19-.09l4-.32-.37-4a3.52,3.52,0,0,1,2.42-3.64,78,78,0,0,0,14.5-6.27l1.2-.68.53-1.27a26.5,26.5,0,0,0-23.46-36.67l-1,0Z"/><path d="M245.79,381.14h-.6A14.52,14.52,0,0,1,231.29,366c.27-6.68.41-13.11.41-19.12,0-17.36-1.14-31.71-3.4-42.66a67.64,67.64,0,0,0-3.39-11.77c-6.85-1.21-11.79-6-15.48-15.11l0-.08,0-.08c-7.06-22.45-6.71-35.38-3.25-55.89,2.17-12.42,8.3-21,16.81-23.55l1.44-.43.82,1.26a5.46,5.46,0,0,0,6.26,2.26c1.12-.35,2.32-.76,3.66-1.25l1-.37.86.64a18.42,18.42,0,0,1,4.81,5.43l1.86,3.11-3.63-.09a62.34,62.34,0,0,1-6.86-.54c-1-.14-1.82-.28-2.33-.38l-.55-.11-.11,0a6.13,6.13,0,0,0-1.4-.17A6,6,0,0,0,227.4,219a67.7,67.7,0,0,0,14.22,1.4h1.29l2.1,0-.07,2.1c0,1.23-.09,2.45-.13,3.68-.47,12.57-.9,24.45,3.7,45.78.41,1.66.72,3.17.92,4.58,7.63,15,11.21,37.37,11.27,70.46,0,6.38-.15,13.21-.44,20.31A14.46,14.46,0,0,1,245.79,381.14Z"/><path class="cls-1" d="M223.51,199.71a7.46,7.46,0,0,0,8.54,3.07c1.28-.4,2.52-.84,3.74-1.28a16.54,16.54,0,0,1,4.29,4.85,60.23,60.23,0,0,1-6.64-.53c-1-.13-1.74-.27-2.22-.36l-.52-.1-.09,0a8,8,0,0,0-3.67,15.57,69.09,69.09,0,0,0,14.68,1.46h1.33c-.45,13.69-1.5,26.24,3.61,49.94a44.48,44.48,0,0,1,.94,4.77c6.56,12.7,11.14,32.92,11.21,69.85,0,6.25-.14,13-.43,20.22a12.5,12.5,0,0,1-12.48,12h-.52a12.5,12.5,0,0,1-12-13c.28-6.94.41-13.32.41-19.2,0-19.55-1.46-33.47-3.44-43.06a65.74,65.74,0,0,0-3.95-13.18c-5.81-.66-11-4.15-15-14-6.71-21.34-6.79-33.6-3.19-55,2.2-12.58,8.2-19.81,15.41-22m1.72-4.69-2.87.86c-9.27,2.77-15.91,11.92-18.21,25.11-3.52,20.86-3.87,34,3.31,56.85l0,.16.06.15c3.73,9.15,8.94,14.44,15.87,16.09a69.93,69.93,0,0,1,2.9,10.43c2.23,10.82,3.36,25,3.36,42.26,0,6-.14,12.38-.41,19a16.52,16.52,0,0,0,15.81,17.16h.68a16.45,16.45,0,0,0,16.48-15.83c.29-7.12.44-14,.44-20.38-.06-33.21-3.67-55.83-11.34-71.08-.21-1.36-.51-2.82-.91-4.44-4.54-21-4.1-32.79-3.64-45.23,0-1.23.09-2.45.13-3.69l.14-4.21-4.21.08h-1.26A65.67,65.67,0,0,1,227.86,217h0a4,4,0,0,1,.93-7.89,4,4,0,0,1,.92.11h.09l.1,0,.61.12c.36.07,1.2.22,2.4.39a64.32,64.32,0,0,0,7.09.56l7.25.18-3.72-6.23a20.42,20.42,0,0,0-5.34-6L236.45,197l-2,.74c-1.34.49-2.48.88-3.58,1.22a3.46,3.46,0,0,1-4-1.44L225.23,195Z"/><path d="M241.62,222.38A70.27,70.27,0,0,1,227,220.94a8,8,0,1,1,3.61-15.59h.08l.52.1c.49.09,1.25.23,2.23.36a60.88,60.88,0,0,0,7.71.54h.46c6,0,14.77-.89,22.91-5.14l.14-.08c9.12-4.85,15.37-12.27,19.63-23.36a8.05,8.05,0,0,1,7.48-5.17,8,8,0,0,1,7.48,10.84c-6.9,18.36-18.68,27.52-27.36,32-1.45.75-3,1.46-5,2.24a67,67,0,0,1-23.89,4.66l-.54,0-.9,0Z"/><path class="cls-1" d="M291.78,174.63a6,6,0,0,1,5.61,8.13c-6.67,17.77-18,26.61-26.4,30.9-1.55.8-3.16,1.51-4.79,2.17A64.89,64.89,0,0,1,243,220.34c-.47,0-.93,0-1.41,0A68.22,68.22,0,0,1,227.44,219a6,6,0,1,1,2.72-11.69h0l.11,0,.57.11c.49.09,1.28.23,2.31.38a63.08,63.08,0,0,0,8,.56h.48c6.23,0,15.34-.93,23.84-5.37l.13-.07c9.6-5.1,16.14-12.86,20.58-24.43a6,6,0,0,1,5.61-3.88m0-4a10.07,10.07,0,0,0-9.35,6.46c-4.07,10.59-10,17.69-18.71,22.31l-.16.09c-7.77,4-16.22,4.89-21.94,4.89h-.46a58.86,58.86,0,0,1-7.45-.52c-1-.14-1.76-.27-2.1-.34l-.48-.1-.13,0a10,10,0,0,0-4.48,19.49h0a72.44,72.44,0,0,0,15.06,1.49l1,0,.51,0a69,69,0,0,0,24.6-4.8c2-.8,3.61-1.54,5.13-2.32,9-4.6,21.18-14.08,28.31-33a10,10,0,0,0-9.35-13.54Z"/><path d="M229.78,203.14a7.5,7.5,0,0,1-2.27-14.65,75,75,0,0,0,11.23-4.6,65.45,65.45,0,0,0,22.35-18.47c.66-.86,1.25-1.66,1.81-2.45a59.53,59.53,0,0,0,8.71-17.9l0-.11a7.5,7.5,0,0,1,14.62,3.34A72.72,72.72,0,0,1,276,170.45,79.51,79.51,0,0,1,265.54,183a82.74,82.74,0,0,1-31.35,19.1l-.68.24c-.48.17-1,.34-1.46.5A7.53,7.53,0,0,1,229.78,203.14Z"/><path class="cls-1" d="M278.94,141.14a5.5,5.5,0,0,1,5.37,6.72,70.49,70.49,0,0,1-10,21.48,77.64,77.64,0,0,1-10.15,12.18,80.72,80.72,0,0,1-30.6,18.64c-.7.24-1.38.49-2.09.72a5.5,5.5,0,0,1-3.33-10.49,76.73,76.73,0,0,0,11.54-4.72,67.27,67.27,0,0,0,23-19q1-1.24,1.86-2.52a61.43,61.43,0,0,0,9-18.55,2,2,0,0,0,.06-.23,5.47,5.47,0,0,1,5.34-4.2m0-4a9.47,9.47,0,0,0-9.23,7.26l0,.09v0l0,.07a57.39,57.39,0,0,1-8.41,17.25c-.54.76-1.11,1.54-1.75,2.37a63.47,63.47,0,0,1-21.67,17.91,73.06,73.06,0,0,1-10.94,4.47,9.5,9.5,0,1,0,5.75,18.11c.52-.16,1-.34,1.52-.52l.66-.23a84.73,84.73,0,0,0,32.11-19.57,81.56,81.56,0,0,0,10.68-12.82,74.84,74.84,0,0,0,10.58-22.78v-.05a9.51,9.51,0,0,0-9.27-11.6Z"/></g></svg>